# AST/ASF file generated using VICON BodyLanguage
# -----------------------------------------------
:version 1.10
:name VICON
:units
  mass 1.0
  length 0.45
  angle deg
:documentation
   .ast/.asf automatically generated from VICON data using
   VICON BodyBuilder and BodyLanguage model FoxedUp or BRILLIANT.MOD
:root
   order TX TY TZ RX RY RZ
   axis XYZ
   position 0 0 0  
   orientation 0 0 0 
:bonedata
  begin
     id 1 
     name lhipjoint
     direction 0.700308 -0.549349 0.455834 
     length 2.59063 
     axis 0 0 0  XYZ
  end
  begin
     id 2 
     name lfemur
     direction 0.34202 -0.939693 0  
     length 6.31066  
     axis 0 0 20  XYZ
    dof rx ry rz
    limits (-160.0 20.0)
           (-70.0 70.0)
           (-60.0 70.0)
  end
  begin
     id 3 
     name ltibia
     direction 0.34202 -0.939693 0   
     length 7.36093   
     axis 0 0 20   XYZ
    dof rx
    limits (-10.0 170.0)
  end
  begin
     id 4 
     name lfoot
     direction 0.0905332 -0.248738 0.96433   
     length 2.0233   
     axis -90 7.62852e-016 20   XYZ
    dof rx rz
    limits (-45.0 90.0)
           (-70.0 20.0)
  end
  begin
     id 5 
     name ltoes
     direction 1.53573e-011 -4.21855e-011 1   
     length 1.01524   
     axis -90 7.62852e-016 20   XYZ
    dof rx
    limits (-90.0 20.0)
  end
  begin
     id 6 
     name rhipjoint
     direction -0.61416 -0.607328 0.503944   
     length 2.34332  
     axis 0 0 0  XYZ 
  end
  begin
     id 7 
     name rfemur
     direction -0.34202 -0.939693 0   
     length 6.58548   
     axis 0 0 -20   XYZ
    dof rx ry rz
    limits (-160.0 20.0)
           (-70.0 70.0)
           (-70.0 60.0)
  end
  begin
     id 8 
     name rtibia
     direction -0.34202 -0.939693 0   
     length 7.20707   
     axis 0 0 -20   XYZ
    dof rx
    limits (-10.0 170.0)
 end
 begin
     id 9 
     name rfoot
     direction -0.136772 -0.375778 0.916561   
     length 1.92184  
     axis -90 -7.62852e-016 -20   XYZ
    dof rx rz
    limits (-45.0 90.0)
           (-20.0 70.0)
  end
  begin
     id 10 
     name rtoes
     direction -1.53535e-011 -4.21828e-011 1   
     length 0.951089   
     axis -90 -7.62852e-016 -20   XYZ
    dof rx
    limits (-90.0 20.0)
  end
  begin
     id 11 
     name lowerback
     direction -0.0444974 0.988086 -0.147332   
     length 1.9609   
     axis 0 0 0   XYZ
    dof rx ry rz
    limits (-20.0 45.0)
           (-30.0 30.0)
           (-30.0 30.0)
  end
  begin
     id 12 
     name upperback
     direction 0.00613146 0.999513 0.0306081   
     length 1.94944   
     axis 0 0 0   XYZ
    dof rx ry rz
    limits (-20.0 45.0)
           (-30.0 30.0)
           (-30.0 30.0)
  end
  begin
     id 13 
     name thorax
     direction 0.0254621 0.994518 0.101418   
     length 2.0119   
     axis 0 0 0   XYZ
    dof rx ry rz
    limits (-20.0 45.0)
           (-30.0 30.0)
           (-30.0 30.0)
  end
  begin
     id 14 
     name lowerneck
     direction 0.0168698 0.977854 0.208608   
     length 1.6375   
     axis 0 0 0   XYZ
    dof rx ry rz
    limits (-20.0 45.0)
           (-30.0 30.0)
           (-30.0 30.0)
  end
  begin
     id 15 
     name upperneck
     direction -0.0283988 0.989338 -0.142843   
     length 1.6851   
     axis 0 0 0   XYZ
    dof rx ry rz
    limits (-20.0 45.0)
           (-30.0 30.0)
           (-30.0 30.0)
  end
  begin
     id 16
     name head
     direction -0.0129422 0.99741 -0.0707489  
     length 1.69029  
     axis 0 0 0   XYZ
    dof rx ry rz
    limits (-20.0 45.0)
           (-30.0 30.0)
           (-30.0 30.0)
  end
  begin
     id 17 
     name lclavicle
     direction 0.820295 0.564628 -0.0911715  
     length 3.16484  
     axis 0 0 0   XYZ
    dof ry rz
    limits (-20.0 10.0)
           (0.0 20.0)
  end
  begin
     id 18 
     name lhumerus
     direction 1 -4.48969e-011 1.00186e-027   
     length 5.17853   
     axis 180 -30 -90   XYZ
    dof rx ry rz
    limits (-60.0 90.0)
           (-90.0 90.0)
           (-90.0 90.0)
  end
  begin
     id 19
     name lradius
     direction 1 -4.48966e-011 -1.52922e-027   
     length 3.40399   
     axis 180 -30 -90   XYZ
    dof rx
    limits (-10.0 170.0)
  end
  begin
     id 20
     name lwrist
     direction 1 -4.48981e-011 -3.80893e-027   
     length 1.70199   
     axis 1.1049e-015 90 90   XYZ
    dof ry
    limits (-180.0 0.0)
 end
  begin
     id 21 
     name lhand
     direction 1 -4.48957e-011 -7.61786e-027   
     length 0.708964   
     axis 4.86085e-015 90 90   XYZ
    dof rx rz
    limits (-90.0 90.0)
           (-45.0 45.0)
  end
  begin
     id 22 
     name lfingers
     direction 1 -4.48929e-011 -1.52357e-026   
     length 0.571585   
     axis 9.7217e-015 90 90   XYZ
    dof rx
    limits (0.0 90.0)
  end
  begin
     id 23
     name lthumb
     direction 0.707107 -6.34905e-011 0.707107   
     length 0.820685   
     axis -90 45 2.85299e-015   XYZ
    dof rx rz
    limits (-45.0 45.0)
           (-45.0 45.0)
  end
  begin
     id 24 
     name rclavicle
     direction -0.858602 0.463947 -0.218075   
     length 3.35137  
     axis 0 0 0   XYZ 
    dof ry rz
    limits (-10.0 20.0)
           (-20.0 0.0)
  end
  begin
     id 25 
     name rhumerus
     direction -1 -4.48969e-011 -1.98511e-027  
     length 5.42351   
     axis 180 30 90   XYZ
    dof rx ry rz
    limits (-90.0 60.0)
           (-90.0 90.0)
           (-90.0 90.0)
  end
  begin
     id 26 
     name rradius
     direction -1 -4.48961e-011 -2.82624e-027   
     length 3.42066   
     axis 180 30 90   XYZ
    dof rx
    limits (-10.0 170.0)
  end
  begin
     id 27 
     name rwrist
     direction -1 -4.48966e-011 -3.80893e-027   
     length 1.71033   
     axis 1.1049e-015 -90 -90   XYZ
    dof ry
    limits (-180.0 0.0)
  end
  begin
     id 28
     name rhand
     direction -1 -4.48964e-011 -7.61786e-027   
     length 0.743608   
     axis 4.86085e-015 -90 -90   XYZ
    dof rx rz
    limits (-90.0 90.0)
           (-45.0 45.0)
  end
  begin
     id 29
     name rfingers
     direction -1 -4.48961e-011 -1.52357e-026   
     length 0.599516   
     axis 9.7217e-015 -90 -90   XYZ
    dof rx
    limits (0.0 90.0)
  end
  begin
     id 30
     name rthumb
     direction -0.707107 -6.34913e-011 0.707107   
     length 0.860789   
     axis -90 -45 -2.85299e-015   XYZ
    dof rx rz
    limits (-45.0 45.0)
           (-45.0 45.0)
  end
:hierarchy
  begin
    root lhipjoint rhipjoint lowerback
    lhipjoint lfemur
    lfemur ltibia
    ltibia lfoot
    lfoot ltoes
    rhipjoint rfemur
    rfemur rtibia
    rtibia rfoot
    rfoot rtoes
    lowerback upperback
    upperback thorax
    thorax lowerneck lclavicle rclavicle
    lowerneck upperneck
    upperneck head
    lclavicle lhumerus
    lhumerus lradius
    lradius lwrist
    lwrist lhand lthumb
    lhand lfingers
    rclavicle rhumerus
    rhumerus rradius
    rradius rwrist
    rwrist rhand rthumb
    rhand rfingers
  end

#!OML:ASF E:\mmandel\Project 1\Capture day 1\Session 2\Subject.ASF
:FULLY-SPECIFIED
:DEGREES
155
root 7.19565 14.7544 -2.94431 8.04729 74.8063 -13.4418
lowerback 20.1676 2.11274 -6.13694
upperback 2.19749 1.43416 -1.17486
thorax -9.0199 0.937614 1.80866
lowerneck -17.3024 0.297775 1.95008
upperneck 3.1672 0.439632 -4.52046
head 3.71949 0.024782 -1.67577
rclavicle -5.56597e-015 3.89618e-014
rhumerus -22.0154 2.06079 -80.7243
rradius 84.3688
rwrist -21.27
rhand -6.91312 24.1392
rfingers 7.12502
rthumb 18.9544 -4.95722
lclavicle -5.56597e-015 3.89618e-014
lhumerus -11.2194 -6.24242 73.8354
lradius 75.0305
lwrist 25.6981
lhand -17.4126 -31.2785
lfingers 7.12502
lthumb 8.83719 -1.48353
rfemur -60.4083 -4.59747 11.4407
rtibia 59.1351
rfoot -21.5567 -1.50915
rtoes -19.4612
lfemur -58.2823 25.0471 -19.8228
ltibia 67.8429
lfoot -26.4268 1.7701
ltoes -0.833102
156
root 7.19151 14.7602 -2.93162 7.91305 74.9587 -13.5577
lowerback 20.2716 2.11095 -6.11896
upperback 2.12303 1.42655 -1.12814
thorax -9.15961 0.937758 1.84787
lowerneck -17.0859 0.241908 1.97325
upperneck 3.00082 0.367875 -4.64183
head 3.63337 -0.01252 -1.72149
rclavicle -3.73715e-014 2.78299e-014
rhumerus -22.0993 1.99096 -80.5954
rradius 84.5765
rwrist -21.2767
rhand -6.95637 24.0952
rfingers 7.12502
rthumb 18.9128 -5.0053
lclavicle -3.73715e-014 2.78299e-014
lhumerus -11.3287 -6.29653 73.9741
lradius 74.8685
lwrist 25.6575
lhand -17.42 -31.1692
lfingers 7.12502
lthumb 8.83005 -1.37391
rfemur -60.3746 -4.66506 11.5113
rtibia 59.1842
rfoot -21.5772 -1.2014
rtoes -19.3126
lfemur -58.2121 24.9073 -19.7196
ltibia 67.7515
lfoot -26.3794 1.79702
ltoes -0.818892
157
root 7.1861 14.7553 -2.91851 8.21933 75.1011 -13.285
lowerback 20.315 2.10468 -6.23955
upperback 2.04242 1.38527 -1.09781
thorax -9.27329 0.926575 1.9586
lowerneck -16.806 0.256515 1.9762
upperneck 2.77365 0.386966 -4.69718
head 3.52149 9.73307e-005 -1.73576
rclavicle 4.45278e-014 -6.36111e-015
rhumerus -22.1519 2.02153 -80.4844
rradius 84.8131
rwrist -21.2865
rhand -7.07193 24.0087
rfingers 7.12502
rthumb 18.8016 -5.10261
lclavicle 4.45278e-014 -6.36111e-015
lhumerus -11.4508 -6.35484 74.0561
lradius 74.7687
lwrist 25.6986
lhand -17.4116 -30.9216
lfingers 7.12502
lthumb 8.8382 -1.1267
rfemur -60.4911 -4.77392 11.4855
rtibia 59.3058
rfoot -21.6321 -1.01289
rtoes -19.1747
lfemur -58.27 24.7828 -19.7474
ltibia 67.7075
lfoot -26.3193 1.57837
ltoes 0.276479
158
root 7.18209 14.7513 -2.90732 8.61258 75.2114 -12.9043
lowerback 20.3271 2.09389 -6.366
upperback 2.01894 1.3418 -1.0867
thorax -9.30554 0.912254 2.05408
lowerneck -16.8021 0.33998 1.98952
upperneck 2.80891 0.493051 -4.66545
head 3.5352 0.0538081 -1.71999
rclavicle 2.18663e-014 -2.70347e-014
rhumerus -22.0845 2.04189 -80.3916
rradius 85.0162
rwrist -21.2725
rhand -7.14274 23.8893
rfingers 7.12502
rthumb 18.7335 -5.22858
lclavicle 2.18663e-014 -2.70347e-014
lhumerus -11.4516 -6.4241 74.0449
lradius 74.6202
lwrist 25.7301
lhand -17.4391 -30.8229
lfingers 7.12502
lthumb 8.81165 -1.02683
rfemur -60.5889 -4.89925 11.4436
rtibia 59.4534
rfoot -21.7412 -0.930787
rtoes -19.2451
lfemur -58.3128 24.7005 -19.8162
ltibia 67.6796
lfoot -26.2543 1.41557
ltoes 0.796207
159
root 7.18107 14.7495 -2.89665 8.71138 75.2446 -12.7606
lowerback 20.3093 2.09945 -6.40998
upperback 2.04369 1.34196 -1.09686
thorax -9.26894 0.912913 2.06862
lowerneck -16.9532 0.414607 2.00725
upperneck 3.02636 0.583284 -4.55958
head 3.62769 0.0993334 -1.68416
rclavicle -2.82274e-014 5.56597e-015
rhumerus -21.8657 1.91955 -80.3446
rradius 85.0424
rwrist -21.2136
rhand -7.08755 24.0136
rfingers 7.12502
rthumb 18.7866 -5.09924
lclavicle -2.82274e-014 5.56597e-015
lhumerus -11.3378 -6.46712 74
lradius 74.3808
lwrist 25.7238
lhand -17.4635 -30.9696
lfingers 7.12502
lthumb 8.78809 -1.17256
rfemur -60.5964 -4.93196 11.4495
rtibia 59.6059
rfoot -21.8582 -0.828604
rtoes -19.4587
lfemur -58.265 24.7106 -19.8019
ltibia 67.6841
lfoot -26.2379 1.39491
ltoes 0.555114
160
root 7.18084 14.7412 -2.88383 8.6298 75.2931 -12.8174
lowerback 20.2489 2.09827 -6.40885
upperback 2.09217 1.34848 -1.1057
thorax -9.18228 0.913415 2.05865
lowerneck -17.0698 0.449153 2.09962
upperneck 3.13477 0.608913 -4.53141
head 3.67985 0.112055 -1.6889
rclavicle 1.98785e-015 -1.27222e-014
rhumerus -21.5543 1.76654 -80.3109
rradius 84.9966
rwrist -21.2092
rhand -7.0517 24.0717
rfingers 7.12502
rthumb 18.8211 -5.03772
lclavicle 1.98785e-015 -1.27222e-014
lhumerus -11.2447 -6.39586 73.9947
lradius 74.2159
lwrist 25.7156
lhand -17.3399 -31.0998
lfingers 7.12502
lthumb 8.90737 -1.30782
rfemur -60.6264 -4.9151 11.4837
rtibia 59.7651
rfoot -21.9395 -0.654614
rtoes -19.5119
lfemur -58.2617 24.7313 -19.7296
ltibia 67.726
lfoot -26.264 1.34523
ltoes 0.437677
161
root 7.18002 14.7347 -2.87 8.69157 75.3913 -12.7769
lowerback 20.1606 2.09228 -6.4207
upperback 2.11913 1.34879 -1.0859
thorax -9.1048 0.91224 2.08942
lowerneck -17.0246 0.417485 2.16217
upperneck 3.03868 0.559792 -4.62064
head 3.64238 0.085766 -1.73009
rclavicle 1.27222e-014 -1.74931e-014
rhumerus -21.4574 1.7373 -80.186
rradius 85.1576
rwrist -21.2709
rhand -7.14303 24.0863
rfingers 7.12502
rthumb 18.7333 -5.03169
lclavicle 1.27222e-014 -1.74931e-014
lhumerus -11.2935 -6.35066 74.0661
lradius 74.2288
lwrist 25.7147
lhand -17.2613 -31.1792
lfingers 7.12502
lthumb 8.98322 -1.39046
rfemur -60.701 -4.96528 11.515
rtibia 59.8943
rfoot -22.0215 -0.403495
rtoes -19.7201
lfemur -58.3175 24.7007 -19.7055
ltibia 67.7467
lfoot -26.2889 1.30972
ltoes 0.23493
162
root 7.17858 14.7333 -2.85682 8.77905 75.4319 -12.706
lowerback 20.0752 2.11295 -6.40944
upperback 2.09528 1.38314 -1.08181
thorax -9.08753 0.927683 2.07933
lowerneck -16.7161 0.388022 2.1292
upperneck 2.78309 0.528845 -4.68343
head 3.51563 0.0733993 -1.74491
rclavicle 1.59028e-014 2.8625e-014
rhumerus -21.5559 1.67834 -80.0619
rradius 85.3887
rwrist -21.2627
rhand -7.21271 24.4338
rfingers 7.12502
rthumb 18.6662 -4.69065
lclavicle 1.59028e-014 2.8625e-014
lhumerus -11.4938 -6.45118 74.1396
lradius 74.3172
lwrist 25.6297
lhand -17.3446 -31.2482
lfingers 7.12502
lthumb 8.9028 -1.45604
rfemur -60.7742 -5.01581 11.5725
rtibia 59.9874
rfoot -22.0911 -0.385082
rtoes -20.022
lfemur -58.3271 24.7091 -19.6886
ltibia 67.7342
lfoot -26.2557 1.35414
ltoes -0.179682
163
root 7.17877 14.7372 -2.84379 9.09205 75.4344 -12.3742
lowerback 19.9814 2.15484 -6.44783
upperback 2.09437 1.43128 -1.14547
thorax -9.04072 0.949662 2.01997
lowerneck -16.5261 0.420899 2.16573
upperneck 2.70236 0.562458 -4.66854
head 3.46275 0.0940276 -1.74281
rclavicle -3.69739e-014 -7.95139e-016
rhumerus -21.5066 1.4465 -80.0393
rradius 85.4568
rwrist -21.212
rhand -7.34756 24.6319
rfingers 7.12502
rthumb 18.5365 -4.50489
lclavicle -3.69739e-014 -7.95139e-016
lhumerus -11.6126 -6.63494 74.166
lradius 74.304
lwrist 25.5085
lhand -17.4179 -31.2473
lfingers 7.12502
lthumb 8.83209 -1.45211
rfemur -60.7958 -5.0468 11.5511
rtibia 60.0484
rfoot -22.0963 -0.420615
rtoes -20.2366
lfemur -58.2502 24.7154 -19.7327
ltibia 67.6966
lfoot -26.2051 1.45301
ltoes -0.697447
164
root 7.17966 14.7399 -2.83016 9.39103 75.458 -12.0417
lowerback 19.9209 2.19752 -6.52134
upperback 2.11499 1.47457 -1.18212
thorax -8.98928 0.970961 2.0112
lowerneck -16.5628 0.446061 2.27908
upperneck 2.71979 0.575981 -4.70566
head 3.47471 0.0996355 -1.77165
rclavicle 5.48646e-014 3.18055e-014
rhumerus -21.4053 1.32373 -79.9308
rradius 85.5801
rwrist -21.3292
rhand -7.52476 24.4926
rfingers 7.12502
rthumb 18.3661 -4.66035
lclavicle 5.48646e-014 3.18055e-014
lhumerus -11.6885 -6.77443 74.2364
lradius 74.267
lwrist 25.5152
lhand -17.3931 -31.251
lfingers 7.12502
lthumb 8.85603 -1.45687
rfemur -60.7753 -5.06839 11.5046
rtibia 60.0957
rfoot -22.1056 -0.41213
rtoes -19.985
lfemur -58.1781 24.7295 -19.7841
ltibia 67.6795
lfoot -26.2456 1.48018
ltoes -1.03739
165
root 7.17568 14.735 -2.81914 8.79769 75.4613 -12.7358
lowerback 19.8411 2.20838 -6.3799
upperback 2.0675 1.52769 -1.10349
thorax -9.00164 0.992274 2.00349
lowerneck -16.5095 0.448214 2.32329
upperneck 2.60908 0.575158 -4.79192
head 3.43321 0.0976848 -1.80502
rclavicle 7.95139e-016 -4.77083e-015
rhumerus -21.4108 1.41944 -79.7267
rradius 85.8177
rwrist -21.5139
rhand -7.57143 24.4069
rfingers 7.12502
rthumb 18.3212 -4.75027
lclavicle 7.95139e-016 -4.77083e-015
lhumerus -11.8637 -6.7489 74.3587
lradius 74.2753
lwrist 25.5641
lhand -17.319 -31.1647
lfingers 7.12502
lthumb 8.92748 -1.37361
rfemur -60.8935 -5.03003 11.7466
rtibia 60.1268
rfoot -22.0834 -0.39945
rtoes -19.6431
lfemur -58.3583 24.8577 -19.6236
ltibia 67.7357
lfoot -26.2434 1.39263
ltoes -1.05469
166
root 7.17067 14.7298 -2.8107 8.25955 75.3753 -13.5261
lowerback 19.6179 2.23022 -6.18987
upperback 1.95836 1.60799 -1.06074
thorax -9.00358 1.02377 1.92393
lowerneck -16.4746 0.492924 2.39977
upperneck 2.6191 0.627389 -4.89401
head 3.43384 0.119358 -1.84489
rclavicle -1.27222e-014 -2.14687e-014
rhumerus -21.4713 1.42507 -79.6208
rradius 86.019
rwrist -21.5348
rhand -7.5429 24.4414
rfingers 7.12502
rthumb 18.3486 -4.7132
lclavicle -1.27222e-014 -2.14687e-014
lhumerus -12.0544 -6.776 74.389
lradius 74.3209
lwrist 25.6265
lhand -17.2451 -30.9685
lfingers 7.12502
lthumb 8.99882 -1.18048
rfemur -61.2292 -4.99418 12.0597
rtibia 60.136
rfoot -21.9781 -0.466835
rtoes -19.9533
lfemur -58.7354 25.0703 -19.52
ltibia 67.8083
lfoot -26.1765 1.27495
ltoes -0.880129
167
root 7.16753 14.73 -2.79873 8.49852 75.3241 -13.4648
lowerback 19.404 2.28206 -6.19236
upperback 1.88831 1.68303 -1.08869
thorax -8.96943 1.05815 1.87834
lowerneck -16.6353 0.588631 2.46252
upperneck 2.81349 0.750829 -4.96576
head 3.52374 0.173009 -1.86875
rclavicle 2.70347e-014 -7.95139e-016
rhumerus -21.4137 1.27518 -79.5532
rradius 86.0714
rwrist -21.4505
rhand -7.53059 24.5929
rfingers 7.12502
rthumb 18.3605 -4.56058
lclavicle 2.70347e-014 -7.95139e-016
lhumerus -12.1631 -6.9698 74.3633
lradius 74.4146
lwrist 25.6808
lhand -17.2376 -30.8068
lfingers 7.12502
lthumb 9.00609 -1.01908
rfemur -61.4943 -5.02073 12.1463
rtibia 60.1486
rfoot -21.9127 -0.527161
rtoes -20.44
lfemur -58.976 25.2121 -19.6141
ltibia 67.8258
lfoot -26.1706 1.15005
ltoes -0.807647
168
root 7.16236 14.7277 -2.78356 8.75135 75.3983 -13.2462
lowerback 19.4219 2.32257 -6.22707
upperback 1.92405 1.72954 -1.09618
thorax -8.94424 1.08071 1.87734
lowerneck -17.1848 0.649723 2.48583
upperneck 3.06567 0.831449 -4.97273
head 3.68899 0.204338 -1.87031
rclavicle 1.86858e-014 1.59028e-014
rhumerus -21.0971 1.11843 -79.4022
rradius 86.0269
rwrist -21.4322
rhand -7.64901 24.7375
rfingers 7.12502
rthumb 18.2465 -4.42673
lclavicle 1.86858e-014 1.59028e-014
lhumerus -11.9998 -7.1 74.3884
lradius 74.4023
lwrist 25.628
lhand -17.3122 -30.7195
lfingers 7.12502
lthumb 8.93404 -0.928655
rfemur -61.5733 -5.07447 12.1589
rtibia 60.1819
rfoot -21.9338 -0.540506
rtoes -20.5364
lfemur -59.0727 25.2445 -19.6734
ltibia 67.8194
lfoot -26.1386 1.03347
ltoes -0.826147
169
root 7.15846 14.7236 -2.76797 8.86838 75.466 -13.0618
lowerback 19.6245 2.37246 -6.303
upperback 2.03069 1.77319 -1.08085
thorax -8.94332 1.10426 1.92174
lowerneck -18.1107 0.674086 2.58765
upperneck 3.41992 0.847214 -4.99201
head 3.94134 0.199344 -1.89467
rclavicle -1.86858e-014 3.18055e-015
rhumerus -20.6851 0.998411 -79.2132
rradius 86.0686
rwrist -21.4686
rhand -7.75773 24.8466
rfingers 7.12502
rthumb 18.1419 -4.32733
lclavicle -1.86858e-014 3.18055e-015
lhumerus -11.6605 -7.06762 74.4316
lradius 74.2641
lwrist 25.5683
lhand -17.3082 -30.5964
lfingers 7.12502
lthumb 8.93792 -0.805765
rfemur -61.5547 -5.10117 12.1686
rtibia 60.2541
rfoot -21.9927 -0.559067
rtoes -20.5846
lfemur -59.0268 25.2862 -19.663
ltibia 67.7867
lfoot -26.0787 0.957536
ltoes -0.747223
